<svg width="426" height="240" fill="white" xmlns="http://www.w3.org/2000/svg" viewBox="0 0 426 240">
<rect x="0" y="0" width="426" height="240" fill="white"/>
<g style="opacity: 1;" id="logogram" transform="translate(213, 120) rotate(0)">
</g>
<g clip-path="url(#clip0_1184_339)" style="opacity: 1;" id="logotype" transform="translate(213, 120) scale(1.7) translate(-64.5, -13)">
<path fill="black" d="M19.08 0.90L19.08 5.13L6.86 5.13L6.86 10.03L18.38 10.03L18.38 13.99L6.86 13.99L6.86 19.77L19.67 19.77L19.67 24L2.10 24L2.10 0.90L19.08 0.90ZM36.26 0.90L41.76 0.90L32.62 10.56L43.05 24L37.59 24L29.68 13.64L27.13 16.37L27.13 24L22.37 24L22.37 0.90L27.13 0.90L27.13 10.63L36.26 0.90ZM50.61 0.90L50.61 24L45.85 24L45.85 0.90L50.61 0.90ZM72.66 0.90L77.42 0.90L77.42 24L71.82 24L59.57 7.44L59.57 24L54.81 24L54.81 0.90L60.13 0.90L72.63 17.95L72.66 0.90ZM92.75 24.32L92.75 24.32Q88.62 24.32 85.96 22.81Q83.30 21.30 81.99 18.61Q80.68 15.91 80.68 12.41L80.68 12.41Q80.68 8.95 81.99 6.25Q83.30 3.56 85.96 2.04Q88.62 0.51 92.75 0.51L92.75 0.51Q96.85 0.51 99.51 2.04Q102.17 3.56 103.48 6.25Q104.79 8.95 104.79 12.41L104.79 12.41Q104.79 15.91 103.48 18.61Q102.17 21.30 99.51 22.81Q96.85 24.32 92.75 24.32ZM92.75 20.08L92.75 20.08Q95.45 20.08 97.02 19.13Q98.60 18.19 99.30 16.48Q100.00 14.76 100.00 12.41L100.00 12.41Q100.00 10.10 99.30 8.37Q98.60 6.64 97.02 5.69Q95.45 4.75 92.75 4.75L92.75 4.75Q90.02 4.75 88.43 5.69Q86.84 6.64 86.15 8.37Q85.47 10.10 85.47 12.41L85.47 12.41Q85.47 14.76 86.15 16.48Q86.84 18.19 88.43 19.13Q90.02 20.08 92.75 20.08ZM110.95 24L105.32 24L113.65 12.55L105.32 0.90L110.71 0.90L116.41 9.09L122.12 0.90L127.54 0.90L119.21 12.55L127.54 24L121.87 24L116.41 16.02L110.95 24Z">
</path></g>

</svg>
